<svg width="800" height="800" viewBox="0 0 800 800" fill="none" xmlns="http://www.w3.org/2000/svg">
<path fill-rule="evenodd" clip-rule="evenodd" d="M569.88 591.234C563.833 595.029 560 601.586 560 608.725V620C560 631.046 551.046 640 540 640H260C248.954 640 240 631.046 240 620V608.725C240 601.586 236.167 595.029 230.12 591.234C139.947 534.637 80 434.319 80 320C80 143.269 223.269 0 400 0C576.731 0 720 143.269 720 320C720 434.319 660.053 534.637 569.88 591.234ZM545.861 549.624C539.839 553.457 536 560.007 536 567.147V572C536 583.045 527.046 592 516 592H400H284C272.954 592 264 583.045 264 572V567.147C264 560.008 260.161 553.457 254.138 549.624C178.307 501.353 128 416.551 128 320C128 169.778 249.778 47.9999 400 47.9999C550.221 47.9999 672 169.778 672 320C672 416.551 621.693 501.353 545.861 549.624Z" fill="#FED64A"/>
<mask id="mask0_205_2" style="mask-type:alpha" maskUnits="userSpaceOnUse" x="240" y="671" width="320" height="129">
<path fill-rule="evenodd" clip-rule="evenodd" d="M255 672C246.716 672 240 678.715 240 687V705C240 713.284 246.716 720 255 720H545C553.284 720 560 713.284 560 705V687C560 678.715 553.284 672 545 672H255ZM255 752C246.716 752 240 758.715 240 767V785C240 793.284 246.716 800 255 800H545C553.284 800 560 793.284 560 785V767C560 758.715 553.284 752 545 752H255Z" fill="#D9D9D9"/>
</mask>
<g mask="url(#mask0_205_2)">
<path d="M187.724 232.192H610.319V328.058V729.445C610.319 729.445 525.423 827.499 422.271 887.147C370.87 916.868 343.969 817.352 295.948 766.938C254.348 723.266 187.724 729.445 187.724 729.445V232.192Z" fill="#1C71E8" fill-opacity="0.399261"/>
<path d="M216.883 562.387H724.171V929.242C724.171 929.242 652.418 898.996 555.22 886.172C458.021 873.349 408.075 1118.99 313.209 1008.53C218.344 898.072 216.883 929.242 216.883 929.242V562.387Z" fill="#1C71E8" fill-opacity="0.399261"/>
<path d="M74.8256 812.436C74.8256 812.436 145.389 946.188 261.642 879.312C327.118 841.647 366.761 632.387 442.319 681.164C511.607 725.895 656.323 812.436 656.323 812.436V1262.66H74.8256V812.436Z" fill="#1C71E8" fill-opacity="0.326028"/>
<path d="M-9.64099 802.849C-9.64099 802.849 15.7933 1245.18 181.56 893.188C347.327 541.192 497.305 802.849 497.305 802.849V1391.68H-9.64099V802.849Z" fill="#1C71E8" fill-opacity="0.326028"/>
<path d="M243.833 159.113H771.727V650.155C771.727 650.155 749.508 608.761 580.387 557.349C492.703 530.693 455.615 684.92 351.403 811.002C267.324 912.726 243.833 650.155 243.833 650.155V159.113Z" fill="#1C71E8" fill-opacity="0.399261"/>
<path d="M317.725 855.545C317.725 855.545 352.45 771.528 465.95 771.528C520.02 771.528 582.078 874.612 642.599 894.579C709.119 916.527 771.725 855.545 771.725 855.545V1329.47H317.725V855.545Z" fill="#1C71E8" fill-opacity="0.326028"/>
</g>
</svg>
